<?xml version="1.0" encoding="UTF-8" standalone="no"?><!DOCTYPE svg PUBLIC "-//W3C//DTD SVG 1.1//EN" "http://www.w3.org/Graphics/SVG/1.1/DTD/svg11.dtd"><svg width="100%" height="100%" viewBox="0 0 17 14" version="1.1" xmlns="http://www.w3.org/2000/svg" xmlns:xlink="http://www.w3.org/1999/xlink" xml:space="preserve" xmlns:serif="http://www.serif.com/" style="fill-rule:evenodd;clip-rule:evenodd;stroke-linejoin:round;stroke-miterlimit:1.41421;"><path d="M16.246,1.94l-4.101,-1.915c-0.003,-0.001 -0.005,0 -0.008,-0.001c-0.032,-0.015 -0.067,-0.021 -0.101,-0.023c-0.003,0 -0.004,-0.001 -0.007,-0.001c-0.005,0 -0.011,0.001 -0.016,0.003c-0.015,0 -0.029,0.002 -0.044,0.005c-0.011,0.003 -0.02,0.005 -0.029,0.008c-0.006,0.003 -0.012,0.004 -0.018,0.006l-3.72,1.594l-3.721,-1.593c-0.001,-0.001 -0.002,-0.001 -0.005,-0.001c-0.029,-0.013 -0.06,-0.019 -0.092,-0.021c-0.004,0 -0.007,-0.001 -0.009,-0.001c-0.006,0 -0.011,0.001 -0.015,0.003c-0.016,0 -0.032,0.002 -0.048,0.006c-0.008,0.002 -0.016,0.004 -0.026,0.007c-0.004,0.001 -0.009,0.001 -0.013,0.004l-4.101,1.641c-0.104,0.041 -0.172,0.141 -0.172,0.253l0,11.756c0,0.091 0.045,0.175 0.12,0.227c0.045,0.03 0.099,0.046 0.154,0.046c0.033,0 0.068,-0.006 0.101,-0.02l3.996,-1.598l3.724,1.596c0.003,0.001 0.007,0.001 0.011,0.002c0.031,0.012 0.062,0.02 0.096,0.02c0.033,0 0.065,-0.008 0.096,-0.02c0.004,-0.001 0.008,-0.001 0.012,-0.002l3.723,-1.596l3.995,1.598c0.034,0.014 0.069,0.02 0.102,0.02c0.055,0 0.108,-0.016 0.153,-0.046c0.075,-0.052 0.121,-0.136 0.121,-0.227l0,-11.484c0,-0.105 -0.062,-0.202 -0.158,-0.246Zm-11.598,-1.252l3.28,1.407l0,11.161l-3.28,-1.407l0,-11.161Zm11.208,12.578l-3.553,-1.421l0,-11.143l3.553,1.659l0,10.905Z" style="fill:#016ac2;fill-rule:nonzero;"/></svg>